<svg width="16" height="16" viewBox="0 0 16 16" fill="none" xmlns="http://www.w3.org/2000/svg">
<rect width="16" height="16" fill="#1E1E1E"/>
<path d="M-70 -304C-70 -305.105 -69.1046 -306 -68 -306H454C455.105 -306 456 -305.105 456 -304V188C456 189.105 455.105 190 454 190H-68C-69.1046 190 -70 189.105 -70 188V-304Z" fill="#EAEAEA"/>
<rect width="16" height="16" fill="url(#paint0_linear_82_30)"/>
<path d="M8.43077 13C7.92821 13 7.49231 12.9165 7.12308 12.7496C6.75385 12.5826 6.47179 12.2877 6.27692 11.8648C6.09231 11.4418 6 10.8464 6 10.0785V9.51085C6.24615 9.51085 6.49744 9.51085 6.75385 9.51085C7.01026 9.51085 7.26154 9.51085 7.50769 9.51085V10.212C7.50769 10.6795 7.54872 11.0412 7.63077 11.2972C7.71282 11.5531 7.82564 11.7312 7.96923 11.8314C8.11282 11.9204 8.27692 11.9649 8.46154 11.9649C8.75897 11.9649 8.99487 11.8592 9.16923 11.6477C9.35385 11.4252 9.44615 11.0134 9.44615 10.4124C9.44615 9.96717 9.38462 9.63328 9.26154 9.41068C9.13846 9.18809 8.94359 9.01002 8.67692 8.87646C8.42051 8.73177 8.08718 8.57039 7.67692 8.39232C7.33846 8.22538 7.04615 8.03061 6.8 7.80801C6.55385 7.58542 6.36923 7.30161 6.24615 6.95659C6.12308 6.61157 6.06154 6.18308 6.06154 5.67112C6.06154 5.04786 6.13333 4.54146 6.27692 4.15192C6.43077 3.75125 6.68718 3.46188 7.04615 3.28381C7.40513 3.0946 7.88718 3 8.49231 3C9.27179 3 9.86667 3.19477 10.2769 3.58431C10.6872 3.96272 10.8923 4.5192 10.8923 5.25376V6.40568C10.6564 6.40568 10.4154 6.40568 10.1692 6.40568C9.93333 6.40568 9.69231 6.40568 9.44615 6.40568V5.7212C9.44615 5.20924 9.36923 4.84196 9.21538 4.61937C9.07179 4.38564 8.8359 4.26878 8.50769 4.26878C8.16923 4.26878 7.92308 4.38008 7.76923 4.60267C7.62564 4.81413 7.55385 5.15359 7.55385 5.62103C7.55385 6.0217 7.62564 6.33333 7.76923 6.55593C7.91282 6.76739 8.09744 6.93433 8.32308 7.05676C8.55897 7.17919 8.8 7.29048 9.04615 7.39065C9.50769 7.57986 9.88205 7.77462 10.1692 7.97496C10.4564 8.17529 10.6667 8.4424 10.8 8.77629C10.9333 9.11018 11 9.58319 11 10.1953C11 10.8965 10.8923 11.453 10.6769 11.8648C10.4718 12.2654 10.1744 12.5548 9.78462 12.7329C9.40513 12.911 8.95385 13 8.43077 13Z" fill="white"/>
<defs>
<linearGradient id="paint0_linear_82_30" x1="3.16384" y1="4.81074e-06" x2="16.9256" y2="1.7031" gradientUnits="userSpaceOnUse">
<stop stop-color="#ED0233"/>
<stop offset="1" stop-color="#003EB7"/>
</linearGradient>
</defs>
</svg>
